<svg width="320" height="400" viewBox="0 0 320 400" fill="none" xmlns="http://www.w3.org/2000/svg">
<mask id="mask0" mask-type="alpha" maskUnits="userSpaceOnUse" x="-1" y="0" width="322" height="400">
<path d="M143 200.3L6.99995 64.3C-2.40005 54.9 -2.40005 39.7 6.99995 30.4L29.6 7.8C39 -1.6 54.2 -1.6 63.5 7.8L159.9 104.2L256.3 7.8C265.7 -1.6 280.9 -1.6 290.2 7.8L313 30.3C322.4 39.7 322.4 54.9 313 64.2L177 200.2C167.6 209.7 152.4 209.7 143 200.3ZM177 392.3L313 256.3C322.4 246.9 322.4 231.7 313 222.4L290.4 199.8C281 190.4 265.8 190.4 256.5 199.8L160 296.1L63.5999 199.7C54.1999 190.3 39 190.3 29.7 199.7L6.99995 222.3C-2.40005 231.7 -2.40005 246.9 6.99995 256.2L143 392.2C152.4 401.7 167.6 401.7 177 392.3Z" fill="black"/>
</mask>
<g mask="url(#mask0)">
<path d="M143 200.3L6.99995 64.3C-2.40005 54.9 -2.40005 39.7 6.99995 30.4L29.6 7.8C39 -1.6 54.2 -1.6 63.5 7.8L159.9 104.2L256.3 7.8C265.7 -1.6 280.9 -1.6 290.2 7.8L313 30.3C322.4 39.7 322.4 54.9 313 64.2L177 200.2C167.6 209.7 152.4 209.7 143 200.3ZM177 392.3L313 256.3C322.4 246.9 322.4 231.7 313 222.4L290.4 199.8C281 190.4 265.8 190.4 256.5 199.8L160 296.1L63.5999 199.7C54.1999 190.3 39 190.3 29.7 199.7L6.99995 222.3C-2.40005 231.7 -2.40005 246.9 6.99995 256.2L143 392.2C152.4 401.7 167.6 401.7 177 392.3Z" fill="black"/>
<path d="M143 200.3L6.99995 64.3C-2.40005 54.9 -2.40005 39.7 6.99995 30.4L29.6 7.8C39 -1.6 54.2 -1.6 63.5 7.8L159.9 104.2L256.3 7.8C265.7 -1.6 280.9 -1.6 290.2 7.8L313 30.3C322.4 39.7 322.4 54.9 313 64.2L177 200.2C167.6 209.7 152.4 209.7 143 200.3ZM177 392.3L313 256.3C322.4 246.9 322.4 231.7 313 222.4L290.4 199.8C281 190.4 265.8 190.4 256.5 199.8L160 296.1L63.5999 199.7C54.1999 190.3 39 190.3 29.7 199.7L6.99995 222.3C-2.40005 231.7 -2.40005 246.9 6.99995 256.2L143 392.2C152.4 401.7 167.6 401.7 177 392.3Z" fill="white"/>
</g>
</svg>
