<svg width="496" height="496" viewBox="0 0 496 496" fill="none" xmlns="http://www.w3.org/2000/svg">
<path d="M248 496C385 496 496 385 496 248C496 111 385 0 248 0C111 0 0 111 0 248C0 385 111 496 248 496ZM248 48C358.5 48 448 137.5 448 248C448 358.5 358.5 448 248 448C137.5 448 48 358.5 48 248C48 137.5 137.5 48 248 48ZM268 376H228C221.4 376 216 370.6 216 364V248H149C138.3 248 133 235.1 140.5 227.5L239.5 128.5C244.2 123.8 251.8 123.8 256.5 128.5L355.5 227.5C363.1 235.1 357.7 248 347 248H280V364C280 370.6 274.6 376 268 376Z" fill="white"/>
</svg>
