<svg width="512" height="512" viewBox="0 0 512 512" fill="none" xmlns="http://www.w3.org/2000/svg">
<path d="M448 0H116V52H64V512H396V460H448V0ZM76 500V64H304V144H384V500H76ZM316 72.485L375.515 132H316V72.485ZM436 448H396V135.515L312.485 52H128V12H436V448Z" fill="white"/>
<path d="M118 116H214V128H118V116Z" fill="white"/>
<path d="M118 148H182V160H118V148Z" fill="white"/>
<path d="M118 196H342V208H118V196Z" fill="white"/>
<path d="M118 228H342V240H118V228Z" fill="white"/>
<path d="M118 292H342V304H118V292Z" fill="white"/>
<path d="M118 324H278V336H118V324Z" fill="white"/>
<path d="M118 260H342V272H118V260Z" fill="white"/>
<path d="M262 372H342V384H262V372Z" fill="white"/>
</svg>
