<svg width="512" height="512" viewBox="0 0 512 512" fill="none" xmlns="http://www.w3.org/2000/svg">
<g clip-path="url(#clip0)">
<path d="M170.647 511.999C163.266 512.015 156.081 509.617 150.188 505.172L13.6553 402.773C-1.42509 391.462 -4.48214 370.068 6.82872 354.986C8.76898 352.399 11.0676 350.1 13.6553 348.16L150.188 245.76C165.268 234.45 186.663 237.507 197.974 252.587C209.285 267.668 206.228 289.063 191.148 300.373L136.536 341.333C218.054 341.556 296.273 309.156 353.758 251.356C411.557 193.872 443.957 115.652 443.734 34.1351C443.734 15.2841 459.016 0.00201416 477.867 0.00201416C496.718 0.00201416 512 15.2841 512 34.1351C512.116 133.738 472.54 229.281 402.027 299.627C367.829 333.914 327.301 361.235 282.692 380.078C236.455 399.651 186.744 409.691 136.536 409.599L191.149 450.559C206.23 461.87 209.286 483.264 197.975 498.346C191.524 506.946 181.398 512.005 170.647 511.999ZM170.647 256.009C166.962 256.005 163.375 257.2 160.429 259.415L23.8964 361.814C16.3561 367.47 14.8276 378.167 20.483 385.707C21.4537 387.001 22.6025 388.15 23.8964 389.121L160.429 491.52C167.969 497.175 178.667 495.647 184.322 488.107C189.965 480.563 188.438 469.875 180.909 464.214L105.816 407.894C102.045 405.067 101.279 399.719 104.107 395.947C105.719 393.797 108.249 392.532 110.936 392.533H136.536C184.461 392.624 231.912 383.042 276.046 364.361C318.632 346.374 357.32 320.292 389.966 287.562C457.277 220.416 495.053 129.212 494.933 34.1351C494.933 24.7091 487.293 17.0686 477.867 17.0686C468.441 17.0686 460.8 24.7091 460.8 34.1351C461.035 120.183 426.836 202.747 365.825 263.425C305.147 324.436 222.582 358.636 136.536 358.4H110.936C106.223 358.4 102.403 354.579 102.403 349.867C102.403 347.181 103.668 344.652 105.816 343.04L180.909 286.72C188.449 281.07 189.981 270.377 184.331 262.838C181.102 258.529 176.03 255.997 170.647 256.009Z" fill="#007BFF"/>
</g>
<defs>
<clipPath id="clip0">
<rect width="512" height="512" fill="white"/>
</clipPath>
</defs>
</svg>
