<svg width="491" height="98" viewBox="0 0 491 98" fill="none" xmlns="http://www.w3.org/2000/svg">
<path d="M118.9 30.3C121 30.2 125.8 30 129.5 30C138.3 30 141.6 34 141.6 39.1C141.6 43.3 139.5 46 136.3 47.5V47.6C139.9 48.5 142.8 51.3 142.8 56.2C142.8 63.8 136.9 67.3 129.1 67.3C125.7 67.3 121 67.2 118.8 67V30.3H118.9ZM125.3 36.3V45.6H129.7C132.7 45.6 135.2 44.1 135.2 40.7C135.2 37.7 132.9 36.1 129.4 36.1C127.9 36.1 126.5 36.2 125.3 36.3ZM125.3 51.2V60.9C126.2 61 127.7 61.2 129.6 61.2C134 61.2 136.3 59.4 136.3 55.9C136.3 52.8 133.9 51.2 129.9 51.2H125.3Z" fill="white"/>
<path d="M163.5 30.1H169.2L184.8 67H177.9L174.1 57.6H158.4L154.6 67H148.1L163.5 30.1ZM160.7 51.6H171.5L166.1 38.5L160.7 51.6Z" fill="white"/>
<path d="M191.5 30.2H212.3V36.2H198V66.9999H191.5V30.2Z" fill="white"/>
<path d="M234.5 29.6C245.4 29.6 253.7 37.1 253.7 48.6C253.7 59.6 245.4 67.6 234.5 67.6C223.6 67.6 215.4 60.1 215.4 48.6C215.4 38 223.2 29.6 234.5 29.6ZM234.5 61.6C242.2 61.6 246.9 55.9 246.9 48.7C246.9 41.1 241.5 35.8 234.5 35.8C227.5 35.8 222.2 41.1 222.2 48.7C222.2 56 227.6 61.6 234.5 61.6Z" fill="white"/>
<path d="M285.8 51.2999H269V66.9999H262.5V30.2H269V45.2H285.8V30.2H292.2V66.9999H285.8V51.2999Z" fill="white"/>
<path d="M305.2 66.9999V30.2H309.7V66.9999H305.2Z" fill="white"/>
<path d="M347.7 66.9999V50.2999H327.5V66.9999H323V30.2H327.5V46.0999H347.7V30.2H352.2V66.9999H347.7Z" fill="white"/>
<path d="M364.6 67V30.3C370.1 30.2 373.4 30.1 374.7 30.1C378.8 30.1 381.8 30.9 383.7 32.6C385.6 34.3 386.5 36.5 386.5 39.2C386.5 41.4 385.9 43.2 384.8 44.6C383.6 46 382.1 47 380.2 47.7V47.8C382.6 48.2 384.4 49.1 385.8 50.6C387.2 52.1 387.9 54.1 387.9 56.5C387.9 60.1 386.7 62.7 384.2 64.5C381.8 66.3 378.5 67.2 374.5 67.2C370.7 67.2 367.4 67.1 364.6 67ZM374.6 34.3C373.5 34.3 371.7 34.4 369.1 34.5V46.4H375C377 46.4 378.7 45.9 380.1 44.8C381.4 43.7 382.1 42.2 382.1 40.3C382 36.3 379.5 34.3 374.6 34.3ZM375 50.3H369V62.8C370.6 62.9 372.5 63 374.7 63C377.5 63 379.6 62.4 381.1 61.3C382.6 60.2 383.3 58.5 383.3 56.3C383.3 54.4 382.6 52.9 381.1 51.9C379.7 50.8 377.6 50.3 375 50.3Z" fill="white"/>
<path d="M398.3 66.9999V30.2H419.1V34.3999H402.8V46.2999H417.5V50.4999H402.8V62.7999H419.6V66.9999H398.3V66.9999Z" fill="white"/>
<path d="M455.5 60.0999L457.3 63.4999C456.1 64.7999 454.4 65.7999 452.3 66.4999C450.2 67.1999 448 67.5999 445.7 67.5999C440.2 67.5999 435.7 65.8999 432.2 62.3999C428.7 58.8999 427 54.3999 427 48.5999C427 43.1999 428.7 38.6999 432 35.0999C435.3 31.4999 439.8 29.7 445.4 29.7C450.1 29.7 453.8 30.8999 456.6 33.2999L454.6 36.7C452.1 34.9 449.1 33.9999 445.5 33.9999C441.5 33.9999 438.2 35.3999 435.7 38.0999C433.1 40.7999 431.9 44.4 431.9 48.7C431.9 53.1 433.2 56.5999 435.9 59.2999C438.5 61.9999 442 63.3999 446.3 63.3999C449.7 63.3999 452.8 62.2999 455.5 60.0999Z" fill="white"/>
<path d="M460.7 34.4999V30.2999H490.9V34.4999H478V66.9999H473.5V34.3999H460.7V34.4999Z" fill="white"/>
<path d="M48.9 0.100006C22.1 0.100006 0.400024 21.9 0.400024 48.6C0.400024 69.6 13.6 87.9 33.5 94.6C33.7 94.7 34 94.7 34.2 94.8C34.4 94.9 34.5 94.9 34.7 95C39.3 96.4 44.1 97.1 49 97.1C75.8 97.1 97.5 75.3 97.5 48.6C97.5 21.9 75.7 0.100006 48.9 0.100006ZM71 83.3C73.2 79.4 74.4 74.9 74.2 70C73.5 58.4 67.2 51.9 60.2 48.6C60.9 48.1 61.6 47.5 62.3 46.8C65.1 43.9 66.5 40 66.3 35.6C66.1 31.6 64.6 28.2 61.9 25.9C57 21.6 49.9 21.8 48.6 21.8H38H30.5V43.7L38 42.9V29.3H48.6H48.9C50.2 29.2 54.5 29.4 56.9 31.5C58.1 32.6 58.7 34 58.8 36.1C58.9 38.5 58.3 40.4 56.9 41.8C54.1 44.7 49.7 45.3 46.2 45.6C43.6 45.8 11.2 49.3 11.2 49.3C11.2 49.3 43.3 52.7 46.1 53C49 53.3 65.9 53.8 66.8 70.4C67.1 77.9 63.4 82.3 60.2 84.7C54.1 89.3 45 90.5 36.3 87.8C19.2 82.3 7.80002 66.6 7.80002 48.7C7.80002 26 26.3 7.60001 48.9 7.60001C71.6 7.60001 90 26.1 90 48.7C90.1 63.2 82.5 76 71 83.3Z" fill="white"/>
<path d="M37.9 55.5L30.4 54.7V75.8H37.9V55.5Z" fill="white"/>
</svg>
