<svg width="512" height="512" viewBox="0 0 512 512" fill="none" xmlns="http://www.w3.org/2000/svg">
<path d="M34.1341 512C15.2916 511.979 0.022357 496.709 0.00102381 477.867C-0.154709 270.662 167.692 102.564 374.896 102.408H375.464L320.851 61.4481C305.767 50.1426 302.704 28.7486 314.01 13.6639C325.316 -1.42081 346.709 -4.48319 361.794 6.82234C361.799 6.82661 361.806 6.83088 361.811 6.83514L498.344 109.235C513.424 120.545 516.481 141.94 505.17 157.021C503.23 159.609 500.931 161.907 498.344 163.848L361.811 266.247C355.918 270.691 348.734 273.085 341.353 273.068C322.501 273.08 307.21 257.807 307.198 238.956C307.192 228.205 312.251 218.08 320.851 211.629L375.464 170.669C205.803 170.669 68.2662 308.206 68.2662 477.867C68.2459 496.709 52.9756 511.979 34.1341 512ZM375.465 119.469C177.687 119.31 17.2265 279.512 17.0676 477.291V477.867C17.0676 487.293 24.7081 494.933 34.1341 494.933C43.5602 494.933 51.2007 487.293 51.2007 477.867C51.2007 298.78 196.378 153.602 375.465 153.602H401.065C405.778 153.602 409.599 157.423 409.599 162.136C409.599 164.821 408.333 167.35 406.185 168.962L331.092 225.282C323.552 230.937 322.024 241.635 327.679 249.175C333.334 256.715 344.032 258.244 351.572 252.588L488.105 150.189C495.645 144.533 497.173 133.836 491.518 126.296C490.547 125.002 489.399 123.853 488.105 122.882L351.572 20.4831C344.032 14.8276 333.334 16.3562 327.679 23.8964C322.024 31.4366 323.552 42.1341 331.092 47.7896L406.185 104.109C409.956 106.937 410.72 112.285 407.892 116.056C406.28 118.204 403.751 119.469 401.065 119.469H375.465Z" fill="#007BFF"/>
</svg>
