<svg width="475" height="475" viewBox="0 0 475 475" fill="none" xmlns="http://www.w3.org/2000/svg">
<g clip-path="url(#clip0)">
<path d="M474.377 88.604C474.377 87.176 473.615 85.855 472.377 85.14L387.729 36.268C386.492 35.553 384.968 35.554 383.731 36.266L64.312 220.416C63.074 221.131 62.311 222.451 62.31 223.881V223.882V250.166L11.39 279.183C10.334 279.785 9.625 280.828 9.43 282.005L0.195 337.626C0.072 338.013 0 338.419 0 338.836V385.782C0 387.211 0.763 388.532 2 389.246L86.642 438.109C87.261 438.466 87.952 438.645 88.642 438.645C89.332 438.645 90.023 438.466 90.642 438.109C90.65 438.104 127.72 417.046 127.72 417.046C128.406 422.132 130.767 426.335 134.77 428.646C136.842 429.842 139.132 430.411 141.519 430.411C149.112 430.411 157.674 424.655 163.221 415.049C166.531 409.315 168.236 403.046 168.022 397.398C167.978 396.229 167.828 395.127 167.627 394.062L235.615 354.813C236.411 359.606 238.752 363.544 242.583 365.756C244.655 366.952 246.945 367.521 249.332 367.521C256.925 367.52 265.487 361.765 271.034 352.159C273.299 348.237 274.791 344.067 275.452 340.014C276.623 341.91 278.163 343.494 280.106 344.617C282.178 345.813 284.468 346.382 286.855 346.382C294.448 346.382 303.01 340.626 308.557 331.02C311.868 325.287 313.573 319.017 313.359 313.369C313.316 312.245 313.174 311.185 312.987 310.157L317.366 307.63C318.604 306.915 319.366 305.595 319.366 304.165V277.99L344.032 263.771C344.032 263.771 367.012 276.964 367.089 277.008C367.705 277.361 368.392 277.537 369.078 277.537C369.777 277.537 370.476 277.354 371.1 276.988L378.757 272.501C379.572 277.425 381.966 281.246 385.697 283.401C387.748 284.586 390.031 285.175 392.448 285.175C395.259 285.175 398.249 284.377 401.261 282.787C406.26 280.147 410.836 275.536 414.146 269.803C416.469 265.78 417.934 261.64 418.584 257.7C419.766 259.598 421.308 261.158 423.219 262.261C425.27 263.446 427.553 264.035 429.97 264.035C432.781 264.035 435.771 263.237 438.783 261.647C443.782 259.007 448.359 254.396 451.669 248.663C455.821 241.471 457.249 233.901 456.117 227.788L460.477 225.272C461.715 224.557 462.477 223.237 462.477 221.807V195.487L472.373 189.782C473.612 189.067 474.375 187.746 474.375 186.316L474.377 88.604ZM385.728 44.35L462.374 88.601L150.952 268.128L74.314 223.884L385.728 44.35ZM70.31 230.81L146.951 275.056V294.453L70.31 250.2V230.81ZM66.281 257.112L142.895 301.349L98.025 326.912L21.41 282.682L66.281 257.112ZM63.415 415.465L29.227 395.727V380.775L63.415 400.512V415.465ZM69.415 394.739L27.227 370.384C25.989 369.669 24.464 369.669 23.227 370.384C21.989 371.098 21.227 372.419 21.227 373.848V374.013L8 366.059V345.764L84.642 390.013L84.641 411.141L71.415 403.185V398.203C71.415 396.775 70.652 395.453 69.415 394.739ZM92.084 343.275L14.773 298.642L16.371 289.009L93.627 333.61L92.084 343.275ZM90.733 351.732L85.972 381.543L8.444 336.783L13.374 307.071L90.733 351.732ZM101.659 334.049L112.472 327.889V369.352L94.349 379.816L101.659 334.049ZM8 375.394L21.227 383.348V391.109L8 383.473V375.394ZM71.415 420.084V412.522L84.641 420.477V427.719L71.415 420.084ZM132.321 397.209C132.32 397.209 132.32 397.209 132.321 397.209C130.342 400.637 129.001 404.147 128.24 407.55L92.643 427.77V390.038L118.473 375.125C119.711 374.411 120.473 373.09 120.473 371.661V323.331L146.951 308.246V383.399C146.371 383.647 145.79 383.918 145.207 384.225C140.208 386.864 135.631 391.476 132.321 397.209ZM156.292 411.049C150.987 420.235 142.799 424.046 138.77 421.719C134.74 419.392 133.945 410.396 139.249 401.209C141.779 396.828 145.312 393.216 148.942 391.3C150.727 390.358 154.117 389.009 156.772 390.539C159.427 392.072 159.951 395.684 160.028 397.7C160.182 401.803 158.821 406.668 156.292 411.049ZM160.771 383.612C158.986 382.581 157.022 382.008 154.95 381.875V372.772L197.462 348.265V367.6L164.36 386.71C163.349 385.473 162.164 384.415 160.771 383.612ZM264.104 348.158C258.799 357.344 250.612 361.153 246.582 358.828C242.552 356.501 241.757 347.505 247.061 338.318C249.59 333.937 253.123 330.325 256.753 328.409C257.955 327.774 259.884 326.955 261.827 326.955C262.769 326.955 263.715 327.148 264.582 327.648C267.237 329.181 267.762 332.793 267.838 334.809C267.995 338.912 266.634 343.778 264.104 348.158ZM301.627 327.019C296.322 336.205 288.135 340.014 284.105 337.689C280.074 335.362 279.28 326.366 284.584 317.179C287.113 312.798 290.646 309.186 294.276 307.27C295.478 306.635 297.407 305.816 299.35 305.816C300.292 305.816 301.238 306.009 302.105 306.509C304.76 308.042 305.285 311.654 305.361 313.67C305.518 317.773 304.157 322.638 301.627 327.019ZM311.365 301.854L309.773 302.773C308.747 301.495 307.535 300.406 306.107 299.581C301.671 297.018 296.144 297.237 290.542 300.194C285.543 302.834 280.967 307.445 277.656 313.178C275.644 316.662 274.293 320.231 273.539 323.686L272.538 324.264C271.459 322.825 270.144 321.621 268.584 320.72C264.148 318.158 258.621 318.376 253.019 321.333C248.02 323.973 243.444 328.584 240.134 334.317C238.008 337.999 236.615 341.778 235.892 345.414L205.462 362.981V343.651L311.364 282.6V301.854H311.365ZM352.036 259.155L365.076 251.638V266.684L352.036 259.155ZM407.218 265.803C404.689 270.184 401.156 273.796 397.526 275.712C395.741 276.654 392.352 278.004 389.696 276.473C387.041 274.94 386.516 271.328 386.44 269.312C386.284 265.209 387.646 260.344 390.175 255.963C395.48 246.777 403.666 242.967 407.697 245.293C411.728 247.62 412.522 256.616 407.218 265.803ZM444.742 244.663C442.212 249.044 438.679 252.656 435.049 254.572C433.264 255.513 429.875 256.864 427.219 255.333C424.564 253.8 424.04 250.188 423.963 248.172C423.808 244.069 425.169 239.204 427.698 234.823C433.003 225.637 441.189 221.825 445.22 224.153C449.25 226.481 450.045 235.477 444.742 244.663ZM454.479 219.498L452.884 220.418C451.868 219.148 450.659 218.056 449.221 217.225C440.557 212.223 428.061 218.198 420.771 230.823C418.812 234.217 417.431 237.798 416.662 241.327L415.655 241.908C414.587 240.479 413.272 239.273 411.699 238.365C403.035 233.363 390.539 239.338 383.249 251.963C381.174 255.556 379.731 259.359 378.995 263.089L373.078 266.556V247.026L454.48 200.099V219.498H454.479ZM154.95 363.537V275.057L466.377 95.527V184.005L154.95 363.537Z" fill="white"/>
</g>
<defs>
<clipPath id="clip0">
<rect width="474.377" height="474.377" fill="white"/>
</clipPath>
</defs>
</svg>
