<svg width="450" height="450" viewBox="0 0 450 450" fill="none" xmlns="http://www.w3.org/2000/svg">
<g clip-path="url(#clip0)">
<path d="M449.432 93.214C449.432 91.785 448.67 90.465 447.432 89.75L336.287 25.58C335.05 24.865 333.526 24.865 332.289 25.579L2.002 216.035C0.764 216.749 0 219.5 0 219.5V356.23C0 357.659 0.762 358.98 2 359.694L35.49 379.028L29.275 382.58C23.252 374.959 14.69 371.807 8.455 375.404C1.282 379.546 0.302 390.824 6.224 401.082C8.883 405.687 12.57 409.397 16.607 411.528C19.051 412.818 21.541 413.466 23.889 413.466C25.932 413.466 27.869 412.975 29.577 411.988C33.249 409.869 35.467 405.691 35.663 400.525C35.797 396.98 34.99 393.143 33.38 389.447L43.51 383.657L113.134 423.852C113.753 424.209 114.444 424.388 115.134 424.388C115.824 424.388 116.514 424.209 117.132 423.853L152.755 403.313C152.874 411.046 155.913 417.288 161.39 420.449C163.843 421.865 166.557 422.539 169.39 422.538C178.568 422.538 188.992 415.474 195.785 403.717C198.555 398.921 200.374 393.864 201.196 389.008C202.586 391.215 204.409 393.022 206.641 394.31C209.058 395.706 211.757 396.401 214.62 396.401C217.993 396.401 221.595 395.436 225.232 393.515C231.357 390.282 236.969 384.617 241.033 377.567C242.907 374.323 244.335 370.96 245.327 367.62L340.928 312.425C341.852 313.337 342.872 314.143 344.01 314.8C346.428 316.196 349.128 316.892 351.993 316.892C355.364 316.892 358.963 315.929 362.597 314.011C368.719 310.781 374.333 305.117 378.404 298.067C381.169 293.281 382.987 288.215 383.808 283.345C385.199 285.563 387.027 287.372 389.26 288.659C391.677 290.055 394.377 290.75 397.241 290.75C400.614 290.75 404.216 289.786 407.853 287.866C413.978 284.633 419.593 278.968 423.666 271.915C429.056 262.571 430.847 252.159 428.641 244.241L447.431 233.407C448.67 232.693 449.433 231.372 449.433 229.942L449.432 93.214ZM25.578 405.061C24.338 405.778 22.429 405.555 20.342 404.453C17.66 403.038 15.04 400.35 13.153 397.082C9.398 390.578 9.688 383.931 12.455 382.332C12.94 382.053 13.52 381.916 14.169 381.916C17.224 381.916 21.783 384.947 24.88 390.312C26.767 393.581 27.784 397.193 27.669 400.223C27.579 402.582 26.817 404.346 25.578 405.061ZM441.432 199.704L400.491 223.31V145.149L441.432 121.543V199.704ZM342.921 284.432V265.738L392.491 237.156V255.85L342.921 284.432ZM227.781 350.821V332.127L277.351 303.545V322.239L227.781 350.821ZM170.201 384.02V365.325L219.781 336.738V355.432L170.201 384.02ZM119.134 413.465V394.77L162.201 369.938V388.632L119.134 413.465ZM355.589 70.763L415.933 105.606L115.136 279.042L31.086 230.518L307.792 70.762C322.534 62.251 340.849 62.254 355.589 70.763ZM277.351 194.744V206.916L227.781 235.498V223.326L277.351 194.744ZM219.781 240.11L170.201 268.697V256.526L219.781 227.939V240.11ZM162.201 273.31L119.134 298.142V285.971L162.201 261.139V273.31ZM119.134 307.376L162.201 282.544V360.704L119.134 385.536V307.376V307.376ZM170.201 277.931L219.781 249.344V327.505L170.201 356.092V277.931V277.931ZM227.781 244.732L277.351 216.15V294.311L227.781 322.893V244.732ZM285.351 211.537L334.921 182.956V261.117L285.351 289.698V211.537ZM285.351 202.303V190.131L334.921 161.549V173.721L285.351 202.303ZM342.921 156.938L392.491 128.356V140.528L342.921 169.109V156.938ZM111.134 285.969V298.137L8 238.597V226.428L111.134 285.969ZM8 247.834L111.134 307.375V385.532L8 325.991V247.834ZM285.351 298.932L334.921 270.351V289.045L285.351 317.626V298.932ZM342.921 256.504V178.343L392.491 149.761V227.922L342.921 256.504ZM441.432 112.309L400.491 135.915V123.743L441.432 100.137V112.309ZM423.938 100.99L359.589 63.834C352.95 60 345.689 57.652 338.287 56.777V35.972L437.428 93.212L423.938 100.99ZM330.287 35.968V56.405C321.11 56.634 311.979 59.107 303.792 63.834L23.086 225.9L12.004 219.502L330.287 35.968ZM57.85 370.853C56.755 368.936 54.311 368.269 52.392 369.366L43.53 374.432L8 353.92V335.229L111.134 394.77V413.461L51.55 379.062L56.362 376.312C58.28 375.215 58.946 372.771 57.85 370.853ZM188.857 399.715C182.433 410.834 171.686 417.154 165.39 413.521C161.57 411.317 159.969 405.516 161.132 398.484L193.445 379.853C194.414 385.495 192.781 392.923 188.857 399.715ZM234.105 373.567C230.783 379.33 226.305 383.901 221.497 386.44C219.061 387.727 214.411 389.557 210.641 387.381C206.836 385.184 205.229 379.405 206.368 372.401L238.712 353.751C239.661 359.383 238.021 366.791 234.105 373.567ZM245.935 349.587L335.389 298.009C335.466 300.764 335.927 303.318 336.729 305.613L246.941 357.452C246.977 354.659 246.649 352.005 245.935 349.587ZM371.477 294.065C368.149 299.828 363.67 304.399 358.864 306.935C356.43 308.22 351.782 310.047 348.01 307.872C344.278 305.717 342.655 300.069 343.69 293.222L376.111 274.528C376.959 280.138 375.31 287.432 371.477 294.065ZM416.737 267.916C413.409 273.68 408.927 278.252 404.118 280.791C401.682 282.077 397.033 283.907 393.258 281.73C389.54 279.586 387.916 273.958 388.934 267.134L421.375 248.429C422.203 254.028 420.552 261.301 416.737 267.916ZM400.491 251.238V232.544L441.432 208.938V227.632L400.491 251.238Z" fill="white"/>
</g>
<defs>
<clipPath id="clip0">
<rect width="449.432" height="449.432" fill="white"/>
</clipPath>
</defs>
</svg>
