<?xml version="1.0" encoding="iso-8859-1"?>
<!-- Generator: Adobe Illustrator 18.0.0, SVG Export Plug-In . SVG Version: 6.00 Build 0)  -->
<!DOCTYPE svg PUBLIC "-//W3C//DTD SVG 1.1//EN" "http://www.w3.org/Graphics/SVG/1.1/DTD/svg11.dtd">
<svg version="1.1" id="Capa_1" xmlns="http://www.w3.org/2000/svg" xmlns:xlink="http://www.w3.org/1999/xlink" x="0px" y="0px"
	 viewBox="0 0 449.432 449.432" style="enable-background:new 0 0 449.432 449.432;" xml:space="preserve">
<path d="M449.432,93.214c0-1.429-0.762-2.749-2-3.464L336.287,25.58c-1.237-0.715-2.761-0.715-3.998-0.001L2.002,216.035
	C0.764,216.749,0,219.5,0,219.5l0,136.73c0,1.429,0.762,2.75,2,3.464l33.49,19.334l-6.215,3.552
	c-6.023-7.621-14.585-10.773-20.82-7.176c-7.173,4.142-8.153,15.42-2.231,25.678c2.659,4.605,6.346,8.315,10.383,10.446
	c2.444,1.29,4.934,1.938,7.282,1.938c2.043,0,3.98-0.491,5.688-1.478c3.672-2.119,5.89-6.297,6.086-11.463
	c0.134-3.545-0.673-7.382-2.283-11.078l10.13-5.79l69.624,40.195c0.619,0.357,1.31,0.536,2,0.536c0.69,0,1.38-0.179,1.998-0.535
	l35.623-20.54c0.119,7.733,3.158,13.975,8.635,17.136c2.453,1.416,5.167,2.09,8,2.089c9.178,0,19.602-7.064,26.395-18.821
	c2.77-4.796,4.589-9.853,5.411-14.709c1.39,2.207,3.213,4.014,5.445,5.302c2.417,1.396,5.116,2.091,7.979,2.091
	c3.373,0,6.975-0.965,10.612-2.886c6.125-3.233,11.737-8.898,15.801-15.948c1.874-3.244,3.302-6.607,4.294-9.947l95.601-55.195
	c0.924,0.912,1.944,1.718,3.082,2.375c2.418,1.396,5.118,2.092,7.983,2.092c3.371,0,6.97-0.963,10.604-2.881
	c6.122-3.23,11.736-8.894,15.807-15.944c2.765-4.786,4.583-9.852,5.404-14.722c1.391,2.218,3.219,4.027,5.452,5.314
	c2.417,1.396,5.117,2.091,7.981,2.091c3.373,0,6.975-0.964,10.612-2.884c6.125-3.233,11.74-8.898,15.813-15.951
	c5.39-9.344,7.181-19.756,4.975-27.674l18.79-10.834c1.239-0.714,2.002-2.035,2.002-3.465L449.432,93.214z M25.578,405.061
	c-1.24,0.717-3.149,0.494-5.236-0.608c-2.682-1.415-5.302-4.103-7.189-7.371c-3.755-6.504-3.465-13.151-0.698-14.75
	c0.485-0.279,1.065-0.416,1.714-0.416c3.055,0,7.614,3.031,10.711,8.396c1.887,3.269,2.904,6.881,2.789,9.911
	C27.579,402.582,26.817,404.346,25.578,405.061z M441.432,199.704l-40.941,23.606v-78.161l40.941-23.606V199.704z M342.921,284.432
	v-18.694l49.57-28.582v18.694L342.921,284.432z M227.781,350.821v-18.694l49.57-28.582v18.694L227.781,350.821z M170.201,384.02
	v-18.695l49.58-28.587v18.694L170.201,384.02z M119.134,413.465V394.77l43.067-24.832v18.694L119.134,413.465z M355.589,70.763
	l60.344,34.843L115.136,279.042l-84.05-48.524L307.792,70.762C322.534,62.251,340.849,62.254,355.589,70.763z M277.351,194.744
	v12.172l-49.57,28.582v-12.172L277.351,194.744z M219.781,240.11l-49.58,28.587v-12.171l49.58-28.587V240.11z M162.201,273.31
	l-43.067,24.832v-12.171l43.067-24.832V273.31z M119.134,307.376l43.067-24.832v78.16l-43.067,24.832V307.376z M170.201,277.931
	l49.58-28.587v78.161l-49.58,28.587V277.931z M227.781,244.732l49.57-28.582v78.161l-49.57,28.582V244.732z M285.351,211.537
	l49.57-28.581v78.161l-49.57,28.581V211.537z M285.351,202.303v-12.172l49.57-28.582v12.172L285.351,202.303z M342.921,156.938
	l49.57-28.582v12.172l-49.57,28.581V156.938z M111.134,285.969v12.168L8,238.597v-12.169L111.134,285.969z M8,247.834
	l103.134,59.541v78.157L8,325.991V247.834z M285.351,298.932l49.57-28.581v18.694l-49.57,28.581V298.932z M342.921,256.504v-78.161
	l49.57-28.582v78.161L342.921,256.504z M441.432,112.309l-40.941,23.606v-12.172l40.941-23.606V112.309z M423.938,100.99
	l-64.349-37.156c-6.639-3.834-13.9-6.182-21.302-7.057V35.972l99.141,57.24L423.938,100.99z M330.287,35.968v20.437
	c-9.177,0.229-18.308,2.702-26.495,7.429L23.086,225.9l-11.082-6.398L330.287,35.968z M57.85,370.853
	c-1.095-1.917-3.539-2.584-5.458-1.487l-8.862,5.066L8,353.92v-18.691l103.134,59.541v18.691L51.55,379.062l4.812-2.75
	C58.28,375.215,58.946,372.771,57.85,370.853z M188.857,399.715c-6.424,11.119-17.171,17.439-23.467,13.806
	c-3.82-2.204-5.421-8.005-4.258-15.037l32.313-18.631C194.414,385.495,192.781,392.923,188.857,399.715z M234.105,373.567
	c-3.322,5.763-7.8,10.334-12.608,12.873c-2.436,1.287-7.086,3.117-10.856,0.941c-3.805-2.197-5.412-7.976-4.273-14.98l32.344-18.65
	C239.661,359.383,238.021,366.791,234.105,373.567z M245.935,349.587l89.454-51.578c0.077,2.755,0.538,5.309,1.34,7.604
	l-89.788,51.839C246.977,354.659,246.649,352.005,245.935,349.587z M371.477,294.065c-3.328,5.763-7.807,10.334-12.613,12.87
	c-2.434,1.285-7.082,3.112-10.854,0.937c-3.732-2.155-5.355-7.803-4.32-14.65l32.421-18.694
	C376.959,280.138,375.31,287.432,371.477,294.065z M416.737,267.916c-3.328,5.764-7.81,10.336-12.619,12.875
	c-2.436,1.286-7.085,3.116-10.86,0.939c-3.718-2.144-5.342-7.772-4.324-14.596l32.441-18.705
	C422.203,254.028,420.552,261.301,416.737,267.916z M400.491,251.238v-18.694l40.941-23.606v18.694L400.491,251.238z"/>
<g>
</g>
<g>
</g>
<g>
</g>
<g>
</g>
<g>
</g>
<g>
</g>
<g>
</g>
<g>
</g>
<g>
</g>
<g>
</g>
<g>
</g>
<g>
</g>
<g>
</g>
<g>
</g>
<g>
</g>
</svg>
